# xmcd
#
# Track frame offsets: 
#        150
#        23195
#        42342
#        59675
#        91875
#        117943
#        141670
#        163556
#        192837
#        222105
#        238242
#        253507
#        267793
#        283616
#        300825
#
# Disc length: 4260 seconds
#
# Revision: 0
# Processed by: cddbd v1.5.2PL0 Copyright (c) Steve Scherf et al.
# Submitted via: ExactAudioCopy v1.0b3
#
DISCID=d710a20f
DTITLE=Grace Jones - Muse
DYEAR=1979
DGENRE=Disco
TTITLE0=Sinning
TTITLE1=Suffer
TTITLE2=Repentance (Forgive Me)
TTITLE3=Saved
TTITLE4=Atlantic City Gambler
TTITLE5=I'll Find My Way To You
TTITLE6=Don't Mess With The Messer
TTITLE7=On Your Knees
TTITLE8=Don't Mess With The Messer (12" Version)
TTITLE9=La Vie En Rose (7" Version)
TTITLE10=Do Or Die (7" Version)
TTITLE11=Comme Un Oiseau Qui S'Envole (7" Version)
TTITLE12=Am I Ever Gonna Fall In Love In New York City (7" Version)
TTITLE13=On Your Knees (7" Edit)
TTITLE14=Don't Mess With The Messer (7" Edit)
EXTD=
EXTT0=
EXTT1=
EXTT2=
EXTT3=
EXTT4=
EXTT5=
EXTT6=
EXTT7=
EXTT8=
EXTT9=
EXTT10=
EXTT11=
EXTT12=
EXTT13=
EXTT14=
PLAYORDER=
